<svg width="537" height="199" viewBox="0 0 537 199" fill="none" xmlns="http://www.w3.org/2000/svg">
<path d="M490.359 164.36H489.275V175.151H490.359V164.36Z" fill="black"/>
<path d="M490.359 164.36H489.275V182.291H490.359V164.36Z" fill="black"/>
<path d="M477.822 164.36H476.738V175.151H477.822V164.36Z" fill="black"/>
<path d="M477.822 164.36H476.738V175.151H477.822V164.36Z" fill="black"/>
<path d="M465.289 164.36H464.205V175.151H465.289V164.36Z" fill="black"/>
<path d="M465.289 164.36H464.205V175.151H465.289V164.36Z" fill="black"/>
<path d="M452.752 164.36H451.668V175.151H452.752V164.36Z" fill="black"/>
<path d="M452.752 164.36H451.668V175.151H452.752V164.36Z" fill="black"/>
<path d="M440.356 164.36H438.99V187.447H440.356V164.36Z" fill="black"/>
<path d="M503.267 164.36H501.447V193.608H503.267V164.36Z" fill="black"/>
<path d="M531.595 163.447H502.354V165.273H531.595V163.447Z" fill="black"/>
<path d="M377.533 164.36H376.449V187.447H377.533V164.36Z" fill="black"/>
<path d="M427.681 164.36H426.598V175.151H427.681V164.36Z" fill="black"/>
<path d="M427.681 164.36H426.598V175.151H427.681V164.36Z" fill="black"/>
<path d="M415.142 164.36H414.059V175.151H415.142V164.36Z" fill="black"/>
<path d="M415.142 164.36H414.059V175.151H415.142V164.36Z" fill="black"/>
<path d="M402.611 164.36H401.527V175.151H402.611V164.36Z" fill="black"/>
<path d="M402.611 164.36H401.527V175.151H402.611V164.36Z" fill="black"/>
<path d="M390.072 164.36H388.988V175.151H390.072V164.36Z" fill="black"/>
<path d="M390.072 164.36H388.988V175.151H390.072V164.36Z" fill="black"/>
<path d="M377.533 164.36H376.449V175.151H377.533V164.36Z" fill="black"/>
<path d="M377.533 164.36H376.449V175.151H377.533V164.36Z" fill="black"/>
<path d="M365.002 164.36H363.918V175.151H365.002V164.36Z" fill="black"/>
<path d="M365.002 164.36H363.918V175.151H365.002V164.36Z" fill="black"/>
<path d="M352.463 164.36H351.379V175.151H352.463V164.36Z" fill="black"/>
<path d="M352.463 164.36H351.379V175.151H352.463V164.36Z" fill="black"/>
<path d="M339.926 164.36H338.842V175.151H339.926V164.36Z" fill="black"/>
<path d="M339.926 164.36H338.842V175.151H339.926V164.36Z" fill="black"/>
<path d="M327.392 164.36H326.309V175.151H327.392V164.36Z" fill="black"/>
<path d="M327.392 164.36H326.309V175.151H327.392V164.36Z" fill="black"/>
<path d="M314.999 164.36H313.633V187.447H314.999V164.36Z" fill="black"/>
<path d="M189.634 164.36H188.268V187.447H189.634V164.36Z" fill="black"/>
<path d="M64.2753 164.36H62.9092V187.447H64.2753V164.36Z" fill="black"/>
<path d="M377.901 164.36H376.082V199H377.901V164.36Z" fill="black"/>
<path d="M252.175 164.36H251.091V187.447H252.175V164.36Z" fill="black"/>
<path d="M302.316 164.36H301.232V175.151H302.316V164.36Z" fill="black"/>
<path d="M302.316 164.36H301.232V175.151H302.316V164.36Z" fill="black"/>
<path d="M289.783 164.36H288.699V175.151H289.783V164.36Z" fill="black"/>
<path d="M289.783 164.36H288.699V175.151H289.783V164.36Z" fill="black"/>
<path d="M277.246 164.36H276.162V175.151H277.246V164.36Z" fill="black"/>
<path d="M277.246 164.36H276.162V175.151H277.246V164.36Z" fill="black"/>
<path d="M264.707 164.36H263.623V175.151H264.707V164.36Z" fill="black"/>
<path d="M264.707 164.36H263.623V175.151H264.707V164.36Z" fill="black"/>
<path d="M252.175 164.36H251.091V175.151H252.175V164.36Z" fill="black"/>
<path d="M252.175 164.36H251.091V175.151H252.175V164.36Z" fill="black"/>
<path d="M239.636 164.36H238.553V175.151H239.636V164.36Z" fill="black"/>
<path d="M239.636 164.36H238.553V175.151H239.636V164.36Z" fill="black"/>
<path d="M227.098 164.36H226.015V175.151H227.098V164.36Z" fill="black"/>
<path d="M227.098 164.36H226.015V175.151H227.098V164.36Z" fill="black"/>
<path d="M214.566 164.36H213.482V175.151H214.566V164.36Z" fill="black"/>
<path d="M214.566 164.36H213.482V175.151H214.566V164.36Z" fill="black"/>
<path d="M202.028 164.36H200.944V175.151H202.028V164.36Z" fill="black"/>
<path d="M202.028 164.36H200.944V175.151H202.028V164.36Z" fill="black"/>
<path d="M189.496 164.36H188.412V175.151H189.496V164.36Z" fill="black"/>
<path d="M252.543 164.36H250.724V199H252.543V164.36Z" fill="black"/>
<path d="M126.81 164.36H125.727V187.447H126.81V164.36Z" fill="black"/>
<path d="M176.958 164.36H175.874V175.151H176.958V164.36Z" fill="black"/>
<path d="M176.958 164.36H175.874V175.151H176.958V164.36Z" fill="black"/>
<path d="M164.419 164.36H163.335V175.151H164.419V164.36Z" fill="black"/>
<path d="M164.419 164.36H163.335V175.151H164.419V164.36Z" fill="black"/>
<path d="M151.886 164.36H150.803V175.151H151.886V164.36Z" fill="black"/>
<path d="M151.886 164.36H150.803V175.151H151.886V164.36Z" fill="black"/>
<path d="M139.348 164.36H138.265V175.151H139.348V164.36Z" fill="black"/>
<path d="M139.348 164.36H138.265V175.151H139.348V164.36Z" fill="black"/>
<path d="M126.81 164.36H125.727V175.151H126.81V164.36Z" fill="black"/>
<path d="M126.81 164.36H125.727V175.151H126.81V164.36Z" fill="black"/>
<path d="M114.278 164.36H113.194V175.151H114.278V164.36Z" fill="black"/>
<path d="M114.278 164.36H113.194V175.151H114.278V164.36Z" fill="black"/>
<path d="M101.74 164.36H100.656V175.151H101.74V164.36Z" fill="black"/>
<path d="M101.74 164.36H100.656V175.151H101.74V164.36Z" fill="black"/>
<path d="M89.2009 164.36H88.1172V175.151H89.2009V164.36Z" fill="black"/>
<path d="M89.2009 164.36H88.1172V175.151H89.2009V164.36Z" fill="black"/>
<path d="M76.6697 164.36H75.5859V175.151H76.6697V164.36Z" fill="black"/>
<path d="M76.6697 164.36H75.5859V175.151H76.6697V164.36Z" fill="black"/>
<path d="M64.1306 164.36H63.0469V175.151H64.1306V164.36Z" fill="black"/>
<path d="M127.178 164.36H125.358V199H127.178V164.36Z" fill="black"/>
<path d="M1.4519 164.36H0.368164V187.447H1.4519V164.36Z" fill="black"/>
<path d="M51.5994 164.36H50.5156V175.151H51.5994V164.36Z" fill="black"/>
<path d="M51.5994 164.36H50.5156V175.151H51.5994V164.36Z" fill="black"/>
<path d="M39.0603 164.36H37.9766V175.151H39.0603V164.36Z" fill="black"/>
<path d="M39.0603 164.36H37.9766V175.151H39.0603V164.36Z" fill="black"/>
<path d="M26.5222 164.36H25.4385V175.151H26.5222V164.36Z" fill="black"/>
<path d="M26.5222 164.36H25.4385V175.151H26.5222V164.36Z" fill="black"/>
<path d="M13.99 164.36H12.9062V175.151H13.99V164.36Z" fill="black"/>
<path d="M13.99 164.36H12.9062V175.151H13.99V164.36Z" fill="black"/>
<path d="M1.4519 164.36H0.368164V175.151H1.4519V164.36Z" fill="black"/>
<path d="M1.4519 164.36H0.368164V175.151H1.4519V164.36Z" fill="black"/>
<path d="M1.81936 164.36H0V199H1.81936V164.36Z" fill="black"/>
<path d="M513.151 151.276H502.354V152.367H513.151V151.276Z" fill="black"/>
<path d="M513.151 151.276H502.354V152.367H513.151V151.276Z" fill="black"/>
<path d="M513.151 151.276H502.354V152.367H513.151V151.276Z" fill="black"/>
<path d="M520.284 151.276H502.354V152.367H520.284V151.276Z" fill="black"/>
<path d="M513.151 138.738H502.354V139.828H513.151V138.738Z" fill="black"/>
<path d="M513.151 138.738H502.354V139.828H513.151V138.738Z" fill="black"/>
<path d="M513.151 126.206H502.354V127.296H513.151V126.206Z" fill="black"/>
<path d="M513.151 126.206H502.354V127.296H513.151V126.206Z" fill="black"/>
<path d="M513.151 113.667H502.354V114.758H513.151V113.667Z" fill="black"/>
<path d="M513.151 113.667H502.354V114.758H513.151V113.667Z" fill="black"/>
<path d="M525.44 100.991H502.354V102.357H525.44V100.991Z" fill="black"/>
<path d="M526.36 163.447H502.354V165.273H526.36V163.447Z" fill="black"/>
<path d="M525.44 38.4497H502.354V39.54H525.44V38.4497Z" fill="black"/>
<path d="M513.151 88.5972H502.354V89.6875H513.151V88.5972Z" fill="black"/>
<path d="M513.151 88.5972H502.354V89.6875H513.151V88.5972Z" fill="black"/>
<path d="M513.151 76.0586H502.354V77.1489H513.151V76.0586Z" fill="black"/>
<path d="M513.151 76.0586H502.354V77.1489H513.151V76.0586Z" fill="black"/>
<path d="M513.151 63.5266H502.354V64.6169H513.151V63.5266Z" fill="black"/>
<path d="M513.151 63.5266H502.354V64.6169H513.151V63.5266Z" fill="black"/>
<path d="M513.151 50.9883H502.354V52.0786H513.151V50.9883Z" fill="black"/>
<path d="M513.151 50.9883H502.354V52.0786H513.151V50.9883Z" fill="black"/>
<path d="M513.151 38.4497H502.354V39.54H513.151V38.4497Z" fill="black"/>
<path d="M513.151 38.4497H502.354V39.54H513.151V38.4497Z" fill="black"/>
<path d="M513.151 25.918H502.354V27.0083H513.151V25.918Z" fill="black"/>
<path d="M513.151 25.918H502.354V27.0083H513.151V25.918Z" fill="black"/>
<path d="M513.151 13.3794H502.354V14.4697H513.151V13.3794Z" fill="black"/>
<path d="M513.151 13.3794H502.354V14.4697H513.151V13.3794Z" fill="black"/>
<path d="M513.151 0.847412H502.354V1.9377H513.151V0.847412Z" fill="black"/>
<path d="M513.151 0.847412H502.354V1.9377H513.151V0.847412Z" fill="black"/>
<path d="M536.994 38.082H502.354V39.9079H536.994V38.082Z" fill="black"/>
</svg>
